<svg xmlns="http://www.w3.org/2000/svg"
     version="1.1" x="0px" y="0px"
     viewBox="0 0 100 100">
    <g transform="translate(0,-952.36218)">
        <path style="text-indent:0;text-transform:none;direction:ltr;block-progression:tb;baseline-shift:baseline;color:#44cc00;enable-background:accumulate;"
              d="m 8.9999985,964.36219 0,76.00001 c 1.6e-4,1.5708 1.4292495,2.9998 2.9999995,3 l 76.000003,0 c 1.57075,-2e-4 2.999841,-1.4292 3,-3 l 0,-76.00001 c -1.59e-4,-1.5708 -1.42925,-2.9998 -3,-3 l -76.000003,0 c -1.66029,0.035 -2.9671095,1.7358 -2.9999995,3 z m 5.9999995,3 70.000001,0 0,70.00001 -70.000001,0 z m 60.937501,14.9688 c -0.769471,0.022 -1.525541,0.3546 -2.0625,0.9062 -10.054191,10.076 -21.796911,21.78231 -32.062501,32.06251 l -13.90625,-11.4687 c -1.19854,-1.0877 -3.30195,-0.9356 -4.33146,0.3133 -1.0295,1.2489 -0.77749,3.3428 0.51896,4.3117 l 16,13.2187 c 1.13682,0.9405 2.98664,0.8544 4.03125,-0.1875 10.661871,-10.6848 23.32856,-23.30551 34.000001,-34.00001 0.865799,-0.8366 1.147429,-2.2211 0.677239,-3.3294 -0.4702,-1.1083 -1.66152,-1.868 -2.864739,-1.8268 z"
              fill="#44cc00" fill-opacity="1" stroke="none"
              />
    </g>
</svg>